PathFileType	4	(X/Y/Z)	15_1_4_p0_0-457_filt_butterworth.trc
DataRate	CameraRate	NumFrames	NumMarkers	Units	OrigDataRate	OrigDataStartFrame	OrigNumFrames
55.0	55.0	6	27	m	55.0	57	457
Frame#	Time	RHip			RKnee			RAnkle			RBigToe			RSmallToe			RHeel			LHip			LKnee			LAnkle			LBigToe			LSmallToe			LHeel			Neck			Head			Nose			RShoulder			RElbow			RWrist			RThumb			RIndex			RPinky			LShoulder			LElbow			LWrist			LThumb			LIndex			LPinky			
		X1	Y1	Z1	X2	Y2	Z2	X3	Y3	Z3	X4	Y4	Z4	X5	Y5	Z5	X6	Y6	Z6	X7	Y7	Z7	X8	Y8	Z8	X9	Y9	Z9	X10	Y10	Z10	X11	Y11	Z11	X12	Y12	Z12	X13	Y13	Z13	X14	Y14	Z14	X15	Y15	Z15	X16	Y16	Z16	X17	Y17	Z17	X18	Y18	Z18	X19	Y19	Z19	X20	Y20	Z20	X21	Y21	Z21	X22	Y22	Z22	X23	Y23	Z23	X24	Y24	Z24	X25	Y25	Z25	X26	Y26	Z26	X27	Y27	Z27	
57	1.0363636363636364	0.2355311136162422	0.9666207457950103	0.1829072615469115	0.24717951180359685	0.5300980430835729	0.17981811211233287	0.27729878676756736	0.1324359842204313	0.21278753756783855	0.25008858100645653	0.1053121715653311	0.03792772713015291	0.3207202349632893	0.12200366063814962	0.04329725359326341	0.25633224336636257	0.0694689840363246	0.2906613037585379	-0.002551545674422205	0.9567389152533392	0.17966247861862075	0.03662172310581491	0.5286999897049947	0.19213367835088974	0.05073914340654289	0.14683894983520568	0.2186508875409887	0.06730620570984581	0.1104589432829987	0.026149735031085353	0.013016602836399696	0.09367910017387468	0.07736060043022318	0.06343802804608355	0.10146606681297186	0.261002241886912	0.08514002958714831	1.5340631280596562	0.2533396838229147	0.08307571195261342	1.7793901889641335	0.18589442834380254	0.07152400886554447	1.6532619704478126	0.11578643748730508	0.247392672518169	1.500601428016442	0.2177611560993678	0.4840712128099409	1.493794172874632	0.2643745403044516	0.5682942561421188	1.6437366533746718	0.19735177541738902	0.5238152960353923	1.7189434556205645	0.11909204725158457	0.5462307264388492	1.722305777700438	0.13591302355930823	0.5845427167158987	1.6979946334810683	0.1430858683666328	-0.08090962652308767	1.4841681790771213	0.21909978681317735	-0.30079645586411663	1.45099641545226	0.28132020200537877	-0.40288977372487667	1.5856067946420647	0.2043377950803021	-0.38801076291899517	1.6517118301882812	0.1310969540539429	-0.4132912814867927	1.6650231521600953	0.13797674355182246	-0.44931403396994185	1.6430577804070488	0.17205505050887648	
58	1.0545454545454545	0.23537192896167594	0.965727437239009	0.18336592302480761	0.24686431391399283	0.5292201577376503	0.18074296653529157	0.27723974965402004	0.13256488777728231	0.21286644085471684	0.2495776952832276	0.10782215263268193	0.036852995176213266	0.3208331275258365	0.12199733588441432	0.043236942305046516	0.25630532994119026	0.06968979275720266	0.2906186270970443	-0.002802440253809729	0.9568152900087897	0.17891921407045988	0.03655655006436298	0.5286238097108537	0.19176983845045825	0.0506639233720447	0.14596861926182694	0.21843105942569807	0.06649392278425681	0.10909206751573111	0.029702994841273422	0.013238667462523852	0.09304632787461577	0.07753748431180724	0.06310856615203812	0.10095484789983666	0.26075362367428717	0.08514741459497605	1.5349621438046355	0.2524943642106853	0.08170032320576383	1.778528969761224	0.1826996036744898	0.07148695731675304	1.6536739003362755	0.11575303753053984	0.24687786870287626	1.502010658980307	0.21999010786908882	0.48453770021619946	1.5011437183360739	0.2777440841038461	0.5490065470372754	1.658144966018223	0.21461083512511206	0.49793920746011033	1.7318356335526515	0.13737464551537912	0.5201387345136766	1.7363311905481917	0.15241469902988092	0.5627173220805777	1.7145348931675903	0.1648141615828941	-0.0791739117514707	1.4856947090526234	0.21719023624371658	-0.2973665837309525	1.4538199724224201	0.2884999668456085	-0.38805378116934824	1.602320514810087	0.2143545968139782	-0.3681058350015488	1.667173421407262	0.14949150238620956	-0.39321631709787785	1.6813617141825987	0.15125500121196442	-0.4304168006679528	1.6597817044445005	0.1811019993390737	
59	1.0727272727272728	0.23542146191140534	0.9649022583078107	0.18395030242583582	0.2466997715745628	0.5282948514234134	0.18183264059565057	0.2772326967042817	0.13272737588036482	0.2129215722465024	0.2491772003956521	0.11041286768629235	0.035831711216108425	0.32086957283353396	0.12212383698439046	0.04319576548712489	0.2562743397961197	0.06985758256748405	0.2905790758452372	-0.0028816741478629886	0.9566048962092049	0.17881089205089076	0.036544296111680655	0.5283397554461914	0.191590436107858	0.05056340434847049	0.14507324576069783	0.21822674851741244	0.06505914882644226	0.1068661207239406	0.03473146391231613	0.013495684398976141	0.09300724994722032	0.07771988048502931	0.0628268931236273	0.10054970322261256	0.2603536281437375	0.08556455568854499	1.5353304942926824	0.25232175214395425	0.08033733798153356	1.7780005307493423	0.17880641787209553	0.07143450735537302	1.6542804404640565	0.11573127218242821	0.24657200182424444	1.5031489751264653	0.22134558498706194	0.4846816946953034	1.507852961475928	0.2887432704375777	0.5280347897860868	1.6702953884433873	0.22729413002658172	0.47283386284497064	1.7404480943877771	0.1591893873644305	0.49477854799143467	1.7460871940306961	0.16978401603409365	0.5397327386909334	1.7271113423951476	0.18759204422860545	-0.07729984307698931	1.4868224701070014	0.21506873878855723	-0.29340319807568443	1.4549385103305121	0.2972441272770768	-0.3719299880493432	1.6160292601643056	0.2232811077653789	-0.3484091853692335	1.6794767367789303	0.16740867852524458	-0.37282257186275225	1.6950603714365409	0.16552025423623487	-0.4115888514596847	1.6730210853098244	0.1897609922447327	
60	1.0909090909090908	0.23556019061279582	0.9642221025996421	0.18471765690164987	0.24664571884326278	0.5275146087086928	0.1827330871071436	0.2772372795938294	0.1329238573793771	0.21288256761657814	0.24890069564831252	0.11299938118284228	0.035143050795632305	0.32062759563614157	0.12253551444615968	0.04344841107356887	0.2562316006756757	0.06994789988675695	0.2905321092117463	-0.0027779972721897243	0.9561398092516359	0.17930526048896722	0.036554701623445526	0.5278488470386982	0.19152755875808095	0.05046130228399688	0.1442494520276053	0.21806552033190246	0.06303774190906535	0.1042879780976746	0.04046212458416686	0.013779197121861455	0.09338609098146884	0.07787394786926577	0.06267170058427025	0.10027877796904985	0.25984571772184983	0.08638742851434403	1.5356367922623664	0.2525290880244144	0.07910017152699947	1.7778989877626534	0.17466605516969977	0.07137859269001963	1.6549852189585343	0.11572608589697728	0.24638220599939553	1.5040883142583803	0.22184391699146958	0.48449488395232443	1.5133285372820886	0.2964094354550917	0.5065899378746804	1.6802537629991265	0.23376205774125605	0.44761725826174453	1.7449537697695245	0.1823438097618011	0.4702731656893255	1.7517520596174583	0.18848139512171802	0.5156600490432839	1.7358967566101329	0.20881194114139956	-0.0755376064967939	1.4876338473576736	0.2130132452394006	-0.2895633892552	1.455346597890093	0.30697900357670915	-0.3554998443275893	1.6266263910700498	0.23274007554659976	-0.32901729416368475	1.6892801532571182	0.183933870938974	-0.3527604295798964	1.7065655599663263	0.17977209358394172	-0.39349987798623587	1.683348189065899	0.19790088827128005	
61	1.1090909090909091	0.23574525226975446	0.9637058603893458	0.1855815185572698	0.24662524155071747	0.5270330594404317	0.1831637837172679	0.2772599179167137	0.13321497003013696	0.21264434902593113	0.2487399687745096	0.11545539229095551	0.03506297305969529	0.32007527845340233	0.1231743727532312	0.04437579105742864	0.2561712096875882	0.06999658501225393	0.2904753044808584	-0.002593849003202611	0.9555418075061549	0.18000522242350478	0.03651710628431117	0.5273420937643227	0.19139688051427933	0.050378334386130354	0.1436128088361548	0.2179599828236722	0.060795765421286854	0.10170864159855311	0.04611253695307559	0.014021808172198724	0.09391133425742793	0.07807261587968485	0.06269219516560452	0.10009972717816082	0.2593702762730547	0.08754520225726238	1.5361509057086724	0.25281769570409784	0.07805007778837454	1.7782317080289178	0.1707940444148276	0.07133002517839218	1.6556516606767093	0.11573049615603795	0.24612202489793775	1.5047672219697463	0.22188502752687372	0.48370423995511824	1.517120656334416	0.3001147100645658	0.48628773283844134	1.6879282363144221	0.23573877802169355	0.4225164691772698	1.7461171476993862	0.20307489079851335	0.4465362357006987	1.7538306453285606	0.20719287372354617	0.4914925967844877	1.7415816969147153	0.22602032441908362	-0.07420754991570415	1.4881650670380442	0.21135219751033085	-0.2860844049061534	1.455515855839156	0.3165460141136628	-0.3398310928206398	1.6336776966134197	0.24406512295913219	-0.3096164223503152	1.697139343046099	0.1994120762129419	-0.3335681985228738	1.7163419316133022	0.1936752866556454	-0.3758285549560313	1.6919053587977824	0.20583248058070822	
62	1.1272727272727272	0.23602253841343995	0.9633322798288672	0.18623988605659125	0.2466100296973242	0.526874573398457	0.18312186567129368	0.2773068534200309	0.13362433314258362	0.2122242369185647	0.24871122918374622	0.1172134722235141	0.03566035558800809	0.31935458448867826	0.1236479621365075	0.04619626946970232	0.25609549844520907	0.07007382029424111	0.2904106360540187	-0.0024768708542089956	0.9549896694900936	0.18040496208436652	0.03637874349355842	0.5270385179781825	0.19104511227278892	0.05031004383561217	0.143213857024325	0.21789547845493004	0.05888714184119449	0.09933979214446231	0.050904732235432223	0.014156388062072402	0.09441618042647075	0.07836783430931865	0.0628510846228665	0.10000146245678407	0.2590031311487079	0.0887722184416637	1.5368361787710116	0.25310239561207437	0.07722783916368237	1.778864029740317	0.1677012299158014	0.07129390251303849	1.6561687231594489	0.11573277246473651	0.2455985527897731	1.5052396688746565	0.22178450594155638	0.4821952946095871	1.5190838995884446	0.30030405493924966	0.46826343656539215	1.6931635212285092	0.23620179230217067	0.3989728473053231	1.745000042544747	0.21966258357043877	0.4239809248781628	1.7534443456207278	0.22417720281017842	0.4688272255154219	1.74490893033618	0.2381911154255327	-0.07360795528106885	1.4884193658915899	0.2103698167750421	-0.2830308939203356	1.455394904106745	0.32489375768074513	-0.3256977370937575	1.6371009789933575	0.2572279767345316	-0.29011377522195125	1.7032256676757442	0.21400967692931214	-0.3153171208958518	1.724418540815031	0.2078263607048145	-0.3583016895431244	1.6993465766234532	0.21384618874428388	
